<mxfile host="65bd71144e">
    <diagram id="PaA3bNvWe5AMJnWXTVSE" name="Page-1">
        <mxGraphModel dx="1048" dy="1094" grid="1" gridSize="10" guides="1" tooltips="1" connect="1" arrows="1" fold="1" page="1" pageScale="1" pageWidth="850" pageHeight="1100" math="0" shadow="0">
            <root>
                <mxCell id="0"/>
                <mxCell id="1" parent="0"/>
                <mxCell id="2" value="Camera Area Model&lt;br&gt;(keeps track of all observed objects per camera)" style="rounded=0;whiteSpace=wrap;html=1;" vertex="1" parent="1">
                    <mxGeometry x="255" y="620" width="170" height="100" as="geometry"/>
                </mxCell>
                <mxCell id="3" value="SaeMessages (cam1)" style="endArrow=classic;html=1;entryX=0;entryY=0.25;entryDx=0;entryDy=0;edgeStyle=orthogonalEdgeStyle;" edge="1" parent="1" target="2">
                    <mxGeometry width="50" height="50" relative="1" as="geometry">
                        <mxPoint x="110" y="600" as="sourcePoint"/>
                        <mxPoint x="375" y="800" as="targetPoint"/>
                    </mxGeometry>
                </mxCell>
                <mxCell id="5" value="Queries model to find merge candidates" style="edgeStyle=orthogonalEdgeStyle;html=1;exitX=0.25;exitY=1;exitDx=0;exitDy=0;entryX=0.5;entryY=0;entryDx=0;entryDy=0;" edge="1" parent="1" source="4" target="2">
                    <mxGeometry x="0.013" y="-25" relative="1" as="geometry">
                        <mxPoint x="1" as="offset"/>
                    </mxGeometry>
                </mxCell>
                <mxCell id="8" value="Maps ids if criteria are met&lt;br&gt;(e.g. distance &amp;amp; time) /&lt;br&gt;Unmaps if criteria &lt;br&gt;are not met anymore" style="edgeStyle=orthogonalEdgeStyle;html=1;exitX=0.75;exitY=1;exitDx=0;exitDy=0;entryX=0.5;entryY=0;entryDx=0;entryDy=0;" edge="1" parent="1" source="4" target="6">
                    <mxGeometry x="-0.0127" y="25" relative="1" as="geometry">
                        <mxPoint x="1" as="offset"/>
                    </mxGeometry>
                </mxCell>
                <mxCell id="4" value="Merging Algorithm" style="rounded=0;whiteSpace=wrap;html=1;" vertex="1" parent="1">
                    <mxGeometry x="380" y="410" width="170" height="100" as="geometry"/>
                </mxCell>
                <mxCell id="6" value="Mapper&lt;br&gt;(keeps track of mapped ids)" style="rounded=0;whiteSpace=wrap;html=1;" vertex="1" parent="1">
                    <mxGeometry x="510" y="620" width="170" height="100" as="geometry"/>
                </mxCell>
                <mxCell id="10" value="Retrieves all current objects" style="edgeStyle=orthogonalEdgeStyle;html=1;exitX=0.25;exitY=0;exitDx=0;exitDy=0;entryX=0.5;entryY=1;entryDx=0;entryDy=0;" edge="1" parent="1" source="9" target="2">
                    <mxGeometry x="0.0145" y="25" relative="1" as="geometry">
                        <mxPoint x="1" as="offset"/>
                    </mxGeometry>
                </mxCell>
                <mxCell id="11" value="Checks which objects &lt;br&gt;have to be merged" style="edgeStyle=orthogonalEdgeStyle;html=1;exitX=0.75;exitY=0;exitDx=0;exitDy=0;entryX=0.5;entryY=1;entryDx=0;entryDy=0;" edge="1" parent="1" source="9" target="6">
                    <mxGeometry x="-0.0141" y="-25" relative="1" as="geometry">
                        <mxPoint x="1" as="offset"/>
                    </mxGeometry>
                </mxCell>
                <mxCell id="12" value="SaeMessages (merged)" style="edgeStyle=orthogonalEdgeStyle;html=1;exitX=1;exitY=0.5;exitDx=0;exitDy=0;" edge="1" parent="1" source="9">
                    <mxGeometry relative="1" as="geometry">
                        <mxPoint x="710" y="860" as="targetPoint"/>
                    </mxGeometry>
                </mxCell>
                <mxCell id="9" value="Output Generator" style="rounded=0;whiteSpace=wrap;html=1;" vertex="1" parent="1">
                    <mxGeometry x="380" y="810" width="170" height="100" as="geometry"/>
                </mxCell>
                <mxCell id="13" value="SaeMessages (cam2)" style="endArrow=classic;html=1;entryX=0;entryY=0.5;entryDx=0;entryDy=0;edgeStyle=orthogonalEdgeStyle;" edge="1" parent="1" target="2">
                    <mxGeometry width="50" height="50" relative="1" as="geometry">
                        <mxPoint x="110" y="670" as="sourcePoint"/>
                        <mxPoint x="265" y="655" as="targetPoint"/>
                    </mxGeometry>
                </mxCell>
                <mxCell id="14" value="SaeMessages (cam3)" style="endArrow=classic;html=1;entryX=0;entryY=0.75;entryDx=0;entryDy=0;edgeStyle=orthogonalEdgeStyle;" edge="1" parent="1" target="2">
                    <mxGeometry width="50" height="50" relative="1" as="geometry">
                        <mxPoint x="110" y="740" as="sourcePoint"/>
                        <mxPoint x="265" y="680" as="targetPoint"/>
                    </mxGeometry>
                </mxCell>
            </root>
        </mxGraphModel>
    </diagram>
</mxfile>